<svg width="24" height="24" viewBox="0 0 24 24" fill="#fff" xmlns="http://www.w3.org/2000/svg">
<g clip-path="url(#clip0_3261_13174)">
<path d="M8.24 9.09006C8.24 9.16006 8.2 9.32006 8.01 9.38006L7.03 9.65006C6.18 9.88006 5.54 10.5201 5.31 11.3701L5.05 12.3301C4.99 12.5501 4.82 12.5701 4.74 12.5701C4.66 12.5701 4.49 12.5501 4.43 12.3301L4.17 11.3601C3.94 10.5201 3.29 9.88006 2.45 9.65006L1.48 9.39006C1.27 9.33006 1.25 9.15006 1.25 9.08006C1.25 9.00006 1.27 8.82006 1.48 8.76006L2.46 8.50006C3.3 8.26006 3.94 7.62006 4.17 6.78006L4.43 5.83006L4.45 5.76006C4.52 5.59006 4.68 5.56006 4.74 5.56006C4.8 5.56006 4.97 5.58006 5.03 5.74006L5.31 6.77006C5.54 7.61006 6.19 8.25006 7.03 8.49006L8 8.75006L8.03 8.77006C8.23 8.85006 8.24 9.03006 8.24 9.09006Z"/>
<path d="M21.15 6.04007C21.83 5.36007 21.83 4.26007 21.15 3.58007C20.47 2.90007 19.37 2.90007 18.69 3.58007L17.34 4.93007L19.8 7.39007L21.15 6.04007Z"/>
<path d="M3.26998 18.85C2.54998 19.57 2.54998 20.73 3.26998 21.45C3.98998 22.17 5.14998 22.17 5.86998 21.45L13.46 13.86L10.86 11.26L3.26998 18.85Z"/>
<path d="M20.84 11.4301L19.33 9.92008L20.1 9.15008C20.3 8.95008 20.41 8.69008 20.41 8.41008C20.41 8.13008 20.3 7.86008 20.1 7.67008L17.06 4.63008C16.65 4.22008 15.98 4.22008 15.57 4.63008L14.8 5.40008L13.29 3.89008C11.86 2.46008 9.85002 1.79008 7.86002 2.08008C7.46002 2.14008 7.13002 2.42008 7.00002 2.80008C6.87002 3.18008 6.97002 3.61008 7.26002 3.89008L11.79 8.42008L10.65 9.56008C10.24 9.97008 10.24 10.6401 10.65 11.0501L13.69 14.0901C13.89 14.2901 14.15 14.4001 14.43 14.4001C14.71 14.4001 14.98 14.2901 15.17 14.0901L16.31 12.9501L20.84 17.4801C21.13 17.7701 21.55 17.8601 21.93 17.7401C22.31 17.6101 22.59 17.2801 22.65 16.8801C22.94 14.8801 22.26 12.8701 20.84 11.4501V11.4301Z"/>
</g>
<defs>
<clipPath id="clip0_3261_13174">
<rect width="24" height="24" fill="white"/>
</clipPath>
</defs>
</svg>